<svg width="49" height="49" viewBox="0 0 49 49" fill="none" xmlns="http://www.w3.org/2000/svg">
<path d="M24.5 47C36.9264 47 47 36.9264 47 24.5C47 12.0736 36.9264 2 24.5 2C12.0736 2 2 12.0736 2 24.5C2 36.9264 12.0736 47 24.5 47Z" fill="#1F1F2C"/>
<path fill-rule="evenodd" clip-rule="evenodd" d="M24.5 3.5C12.902 3.5 3.5 12.902 3.5 24.5C3.5 36.098 12.902 45.5 24.5 45.5C36.098 45.5 45.5 36.098 45.5 24.5C45.5 12.902 36.098 3.5 24.5 3.5ZM0.5 24.5C0.5 11.2452 11.2452 0.5 24.5 0.5C37.7548 0.5 48.5 11.2452 48.5 24.5C48.5 37.7548 37.7548 48.5 24.5 48.5C11.2452 48.5 0.5 37.7548 0.5 24.5Z" fill="white"/>
<path fill-rule="evenodd" clip-rule="evenodd" d="M20.6702 28.1671L32.632 16.2053L34.965 18.5383L20.6702 32.8331L14.0254 26.1883L16.3584 23.8553L20.6702 28.1671Z" fill="white"/>
</svg>
