<svg width="48" height="48" viewBox="0 0 48 48" fill="none" xmlns="http://www.w3.org/2000/svg">
<path d="M39.1055 5.99411C38.6016 6.01754 38.127 6.16403 37.7051 6.32809H37.6992C37.2715 6.49801 35.2383 7.35348 32.1504 8.6484C29.0625 9.94919 25.0547 11.6367 21.0762 13.3125C13.1309 16.6582 5.32034 19.9511 5.32034 19.9511L5.41409 19.916C5.41409 19.916 4.87502 20.0918 4.31252 20.4785C4.02542 20.666 3.70901 20.9238 3.43362 21.3281C3.15823 21.7324 2.93557 22.3535 3.0176 22.9922C3.15237 24.0761 3.85549 24.7265 4.3594 25.084C4.86917 25.4472 5.35549 25.6172 5.35549 25.6172H5.36721L12.6914 28.084C13.0196 29.1386 14.9239 35.3964 15.3809 36.8379C15.6504 37.6992 15.9141 38.2382 16.2422 38.6484C16.4004 38.8593 16.5879 39.0351 16.8106 39.1757C16.8985 39.2285 16.9922 39.2695 17.086 39.3047C17.1153 39.3222 17.1446 39.3281 17.1797 39.334L17.1035 39.3164C17.127 39.3222 17.1446 39.3398 17.1621 39.3457C17.2207 39.3632 17.2617 39.3691 17.3379 39.3808C18.4981 39.7324 19.4297 39.0117 19.4297 39.0117L19.4824 38.9707L23.8067 35.0332L31.0547 40.5937L31.2188 40.664C32.7305 41.3261 34.2598 40.957 35.0684 40.3066C35.8828 39.6504 36.1992 38.8125 36.1992 38.8125L36.252 38.6777L41.8535 9.98434C42.0117 9.27536 42.0528 8.61325 41.877 7.96872C41.7012 7.32419 41.25 6.72067 40.7051 6.3984C40.1543 6.07028 39.6094 5.97067 39.1055 5.99411ZM38.9532 9.07028C38.9473 9.16403 38.9649 9.15231 38.9239 9.33395V9.35153L33.375 37.7461C33.3516 37.7871 33.3106 37.875 33.1992 37.9629C33.0821 38.0566 32.9883 38.1152 32.502 37.9218L23.6367 31.125L18.2813 36.0058L19.4063 28.8222C19.4063 28.8222 33.293 15.8789 33.8907 15.3222C34.4883 14.7656 34.2891 14.6484 34.2891 14.6484C34.3301 13.9687 33.3867 14.4492 33.3867 14.4492L15.1231 25.7636L15.1172 25.7343L6.36331 22.7871V22.7812C6.35745 22.7812 6.34573 22.7754 6.33987 22.7754C6.34573 22.7754 6.38674 22.7578 6.38674 22.7578L6.43362 22.7343L6.48049 22.7168C6.48049 22.7168 14.2969 19.4238 22.2422 16.0781C26.2207 14.4023 30.2285 12.7148 33.3106 11.414C36.3926 10.1191 38.6719 9.16989 38.8008 9.11715C38.9239 9.07028 38.8653 9.07028 38.9532 9.07028Z" fill="black"/>
</svg>
