<svg width="24" height="24" viewBox="0 0 24 24" fill="none" xmlns="http://www.w3.org/2000/svg">
<rect width="24" height="24" rx="12" fill="#0A66C2"/>
<path d="M17.6255 5.39999H6.37432C6.11589 5.39999 5.86804 5.50266 5.6853 5.68539C5.50256 5.86813 5.3999 6.11598 5.3999 6.37441V17.6256C5.3999 17.884 5.50256 18.1319 5.6853 18.3146C5.86804 18.4973 6.11589 18.6 6.37432 18.6H17.6255C17.8839 18.6 18.1318 18.4973 18.3145 18.3146C18.4972 18.1319 18.5999 17.884 18.5999 17.6256V6.37441C18.5999 6.11598 18.4972 5.86813 18.3145 5.68539C18.1318 5.50266 17.8839 5.39999 17.6255 5.39999ZM9.33424 16.6447H7.34965V10.3408H9.33424V16.6447ZM8.34057 9.46724C8.11545 9.46598 7.89576 9.39805 7.70921 9.27204C7.52266 9.14603 7.37761 8.96759 7.29238 8.75922C7.20716 8.55086 7.18556 8.32192 7.23032 8.10129C7.27508 7.88067 7.38419 7.67825 7.54389 7.51957C7.70358 7.3609 7.9067 7.25309 8.12761 7.20975C8.34852 7.1664 8.57731 7.18947 8.78513 7.27604C8.99294 7.3626 9.17045 7.50879 9.29526 7.69614C9.42007 7.8835 9.48658 8.10362 9.4864 8.32874C9.48853 8.47946 9.46028 8.62907 9.40336 8.76864C9.34643 8.90821 9.26199 9.03489 9.15507 9.14113C9.04814 9.24737 8.92092 9.331 8.78099 9.38703C8.64105 9.44305 8.49127 9.47034 8.34057 9.46724ZM16.6492 16.6502H14.6656V13.2063C14.6656 12.1907 14.2338 11.8772 13.6765 11.8772C13.088 11.8772 12.5105 12.3208 12.5105 13.232V16.6502H10.5259V10.3454H12.4344V11.219H12.4601C12.6517 10.8312 13.3227 10.1685 14.3466 10.1685C15.4539 10.1685 16.6502 10.8257 16.6502 12.7507L16.6492 16.6502Z" fill="white"/>
</svg>
