<svg width="24" height="24" viewBox="0 0 24 24" fill="none" xmlns="http://www.w3.org/2000/svg">
<rect width="24" height="24" rx="12" fill="#1D9BF0"/>
<path d="M9.80408 18.33C15.1261 18.33 18.0361 13.92 18.0361 10.098C18.0361 9.97201 18.0361 9.84601 18.0301 9.72601C18.5941 9.31801 19.0861 8.80801 19.4761 8.22601C18.9601 8.45401 18.4021 8.61001 17.8141 8.68201C18.4141 8.32201 18.8701 7.75801 19.0861 7.08001C18.5281 7.41001 17.9101 7.65001 17.2501 7.78201C16.7221 7.21801 15.9721 6.87001 15.1381 6.87001C13.5421 6.87001 12.2461 8.16601 12.2461 9.76201C12.2461 9.99001 12.2701 10.212 12.3241 10.422C9.91808 10.302 7.78808 9.15001 6.36008 7.39801C6.11408 7.82401 5.97008 8.32201 5.97008 8.85001C5.97008 9.85201 6.48008 10.74 7.26008 11.256C6.78608 11.244 6.34208 11.112 5.95208 10.896C5.95208 10.908 5.95208 10.92 5.95208 10.932C5.95208 12.336 6.94808 13.5 8.27408 13.77C8.03408 13.836 7.77608 13.872 7.51208 13.872C7.32608 13.872 7.14608 13.854 6.96608 13.818C7.33208 14.97 8.40008 15.804 9.66608 15.828C8.67608 16.602 7.42808 17.064 6.07208 17.064C5.83808 17.064 5.61008 17.052 5.38208 17.022C6.64808 17.85 8.17208 18.33 9.80408 18.33Z" fill="white"/>
</svg>
