<svg width="24" height="24" viewBox="0 0 24 24" fill="none" xmlns="http://www.w3.org/2000/svg">
<rect width="24" height="24" rx="12" fill="url(#paint0_linear_2011_7313)"/>
<path d="M4.72095 18.9815L5.74988 15.2451C5.11375 14.1484 4.78004 12.9064 4.78352 11.6367C4.78352 7.65818 8.03717 4.42345 12.0312 4.42345C13.9709 4.42345 15.7924 5.17418 17.1585 6.53727C18.5281 7.90035 19.2824 9.71319 19.279 11.6402C19.279 15.6187 16.0253 18.8535 12.0278 18.8535H12.0243C10.8111 18.8535 9.61881 18.549 8.55859 17.9747L4.72095 18.9815ZM8.74283 16.6705L8.96182 16.8019C9.88647 17.3485 10.9467 17.6357 12.0278 17.6392H12.0312C15.3509 17.6392 18.0554 14.951 18.0554 11.6437C18.0554 10.0419 17.4297 8.53692 16.293 7.40217C15.1563 6.26742 13.6407 5.64469 12.0312 5.64469C8.71154 5.64123 6.00711 8.32935 6.00711 11.6367C6.00711 12.768 6.32344 13.8716 6.92829 14.8265L7.07081 15.0548L6.46249 17.2655L8.74283 16.6705Z" fill="white"/>
<path d="M4.97461 18.7289L5.96878 15.1206C5.35351 14.0654 5.03023 12.8649 5.03023 11.6402C5.0337 7.80002 8.17265 4.67599 12.0311 4.67599C13.9048 4.67599 15.6602 5.40251 16.9812 6.71716C18.3021 8.03182 19.0286 9.78238 19.0286 11.6436C19.0286 15.4838 15.8862 18.6078 12.0311 18.6078H12.0277C10.8562 18.6078 9.70562 18.3138 8.68364 17.7602L4.97461 18.7289Z" fill="url(#paint1_linear_2011_7313)"/>
<path d="M4.72095 18.9815L5.74988 15.2451C5.11375 14.1484 4.78004 12.9064 4.78352 11.6367C4.78352 7.65818 8.03717 4.42345 12.0312 4.42345C13.9709 4.42345 15.7924 5.17418 17.1585 6.53727C18.5281 7.90035 19.2824 9.71319 19.279 11.6402C19.279 15.6187 16.0253 18.8535 12.0278 18.8535H12.0243C10.8111 18.8535 9.61881 18.549 8.55859 17.9747L4.72095 18.9815ZM8.74283 16.6705L8.96182 16.8019C9.88647 17.3485 10.9467 17.6357 12.0278 17.6392H12.0312C15.3509 17.6392 18.0554 14.951 18.0554 11.6437C18.0554 10.0419 17.4297 8.53692 16.293 7.40217C15.1563 6.26742 13.6407 5.64469 12.0312 5.64469C8.71154 5.64123 6.00711 8.32935 6.00711 11.6367C6.00711 12.768 6.32344 13.8716 6.92829 14.8265L7.07081 15.0548L6.46249 17.2655L8.74283 16.6705Z" fill="url(#paint2_linear_2011_7313)"/>
<path fill-rule="evenodd" clip-rule="evenodd" d="M10.22 8.61995C10.0844 8.31897 9.94192 8.31205 9.8133 8.30859C9.70902 8.30513 9.58735 8.30513 9.46569 8.30513C9.34403 8.30513 9.14936 8.3501 8.98251 8.53C8.81565 8.7099 8.34985 9.14581 8.34985 10.0349C8.34985 10.9206 8.99989 11.7786 9.09027 11.8997C9.18065 12.0208 10.3452 13.8993 12.184 14.6224C13.7135 15.2243 14.0264 15.1033 14.3566 15.0721C14.6868 15.041 15.4272 14.6362 15.5802 14.2141C15.7297 13.7921 15.7297 13.4323 15.6845 13.3562C15.6393 13.28 15.5176 13.2351 15.3369 13.1451C15.1561 13.0552 14.2662 12.6193 14.0994 12.557C13.9325 12.4982 13.8109 12.467 13.6927 12.6469C13.571 12.8268 13.2234 13.2316 13.1191 13.3527C13.0148 13.4738 12.9071 13.4876 12.7263 13.3977C12.5455 13.3077 11.9615 13.1174 11.2698 12.5016C10.731 12.0242 10.366 11.4326 10.2617 11.2527C10.1574 11.0728 10.2513 10.9759 10.3417 10.886C10.4216 10.8064 10.5224 10.675 10.6128 10.5712C10.7032 10.4674 10.7345 10.3913 10.7936 10.2702C10.8527 10.1491 10.8249 10.0453 10.7797 9.95536C10.7345 9.86887 10.3799 8.97629 10.22 8.61995Z" fill="white"/>
<defs>
<linearGradient id="paint0_linear_2011_7313" x1="11.9994" y1="23.9988" x2="11.9994" y2="-0.000839698" gradientUnits="userSpaceOnUse">
<stop stop-color="#20B038"/>
<stop offset="1" stop-color="#60D66A"/>
</linearGradient>
<linearGradient id="paint1_linear_2011_7313" x1="12.0012" y1="18.7282" x2="12.0012" y2="4.6755" gradientUnits="userSpaceOnUse">
<stop stop-color="#20B038"/>
<stop offset="1" stop-color="#60D66A"/>
</linearGradient>
<linearGradient id="paint2_linear_2011_7313" x1="12.0014" y1="18.9801" x2="12.0014" y2="4.42345" gradientUnits="userSpaceOnUse">
<stop stop-color="#F9F9F9"/>
<stop offset="1" stop-color="white"/>
</linearGradient>
</defs>
</svg>
