<svg width="1020" height="1020" viewBox="0 0 1020 1020" fill="none" xmlns="http://www.w3.org/2000/svg">
<ellipse cx="510" cy="510.002" rx="510" ry="509.998" fill="#416958"/>
<path fill-rule="evenodd" clip-rule="evenodd" d="M808.128 0.250162C816.862 1.80133 822.686 10.1396 821.134 18.8743C788.975 199.963 712.04 365.55 602.197 503.793C602.503 504.375 602.777 504.982 603.015 505.613C624.458 562.358 635.947 620.455 638.334 677.965C638.702 686.829 631.815 694.313 622.951 694.681C614.088 695.049 606.604 688.161 606.236 679.298C604.207 630.407 595.188 581.038 578.564 532.519C528.611 591.176 472.544 644.462 411.35 691.39C404.311 696.788 394.228 695.458 388.829 688.418C383.431 681.379 384.761 671.296 391.801 665.897C506.878 577.647 603.257 466.254 673.986 338.687C627.284 350.771 583.623 368.917 543.666 392.087C535.991 396.537 526.162 393.923 521.712 386.248C517.262 378.574 519.876 368.745 527.55 364.295C577.345 335.421 632.522 313.911 691.905 301.521C692.529 301.391 693.153 301.299 693.773 301.243C738.775 211.774 771.429 115.032 789.503 13.257C791.054 4.52237 799.393 -1.301 808.128 0.250162Z" fill="#D1BDA0"/>
</svg>
