<svg width="999" height="999" viewBox="0 0 999 999" fill="none" xmlns="http://www.w3.org/2000/svg">
<rect width="999" height="999" fill="#415942"/>
<path fill-rule="evenodd" clip-rule="evenodd" d="M316.073 253.546C260.698 253.546 219.831 310.171 221.056 383.549C221.728 423.937 238.593 478.667 256.969 525.777C261.278 536.823 265.777 547.716 270.323 558.197C248.889 584.123 223.513 611.793 194.09 641.215C183.97 651.336 183.97 667.744 194.09 677.864C204.211 687.984 220.619 687.984 230.739 677.864C254.296 654.307 275.621 631.56 294.664 609.628C301.008 621.796 306.876 631.995 311.787 639.362C333.877 672.498 364.392 686.366 396.395 683.166C426.018 680.204 452.858 663.061 472.607 643.311C487.359 628.56 501.53 608.972 513.243 590.848C518.212 607.494 523.919 622.49 530.872 635.237C538.665 649.524 548.719 662.358 562.317 671.556C576.22 680.961 592.192 685.454 609.77 685.454C645.3 685.454 669.906 667.381 685.624 652.36C690.646 647.559 695.683 642.102 699.396 638.057C700.669 638.994 702.154 640.105 703.797 641.335L703.797 641.336C709.156 645.346 716.191 650.612 722.99 655.162C744.701 669.691 775.499 685.454 817.085 685.454C831.398 685.454 843 673.852 843 659.54C843 645.227 831.398 633.625 817.085 633.625C789.566 633.625 768.829 623.474 751.815 612.088C745.936 608.154 741.471 604.794 736.901 601.356C734.082 599.235 731.223 597.084 727.967 594.749C724.31 592.127 719.981 589.185 715.434 586.862C711.117 584.656 704.331 581.796 696.151 581.796C686.039 581.796 678.685 586.781 675.483 589.17C671.74 591.964 668.406 595.324 665.927 597.924C663.789 600.166 661.927 602.202 660.129 604.169L660.128 604.17L660.128 604.17C656.896 607.705 653.869 611.016 649.814 614.891C638.416 625.784 626.069 633.625 609.77 633.625C601.433 633.625 595.81 631.639 591.357 628.627C586.598 625.408 581.536 619.886 576.372 610.418C565.568 590.611 557.516 559.827 548.799 516.247C546.628 505.391 537.801 497.113 526.828 495.644C515.857 494.175 505.155 499.854 500.203 509.753L500.147 509.865L499.889 510.373L498.818 512.46C497.865 514.303 496.448 517.01 494.633 520.381C490.996 527.134 485.798 536.491 479.571 546.868C466.808 568.14 450.869 591.753 435.959 606.663C421.155 621.466 404.805 630.237 391.237 631.594C380.05 632.713 367.373 629.305 354.911 610.612C348.914 601.616 340.205 585.647 330.635 565.622C343.198 549.167 354.314 533.222 363.958 517.792C379.95 492.206 392.279 467.424 400.31 443.586H454.283C468.595 443.586 480.198 431.983 480.198 417.671C480.198 403.359 468.595 391.757 454.283 391.757H410.849C411.011 388.86 411.092 385.98 411.092 383.119C411.092 307.103 371.357 253.546 316.073 253.546ZM358.9 391.757C359.144 388.797 359.263 385.918 359.263 383.119C359.263 320.924 329.894 305.375 316.073 305.375C302.342 305.375 271.893 323.729 272.878 382.686C273.383 413.062 287.059 460.296 305.255 506.941C305.724 508.145 306.195 509.345 306.668 510.541C311.441 503.655 315.887 496.915 320.007 490.322C330.523 473.498 338.728 457.936 344.855 443.586H333.349C319.037 443.586 307.434 431.983 307.434 417.671C307.434 403.359 319.037 391.757 333.349 391.757H358.9Z" fill="#E3D7BD"/>
</svg>
